<?xml version="1.0" encoding="utf-8"?>
<!-- Generator: Adobe Illustrator 12.0.0, SVG Export Plug-In . SVG Version: 6.00 Build 51448)  -->
<!DOCTYPE svg PUBLIC "-//W3C//DTD SVG 1.1//EN" "http://www.w3.org/Graphics/SVG/1.1/DTD/svg11.dtd" [
	<!ENTITY ns_svg "http://www.w3.org/2000/svg">
	<!ENTITY ns_xlink "http://www.w3.org/1999/xlink">
]>
<svg  version="1.1" id="Layer_1" xmlns="&ns_svg;" xmlns:xlink="&ns_xlink;" width="250" height="249.996"
	 viewBox="0 0 250 249.996" overflow="visible" enable-background="new 0 0 250 249.996" xml:space="preserve">
<g>
	<path fill="#F8B800" d="M222.626,124.949c0,53.986-43.77,97.753-97.749,97.753c-53.993,0-97.758-43.767-97.758-97.753
		c0-53.99,43.765-97.748,97.758-97.748C178.856,27.202,222.626,70.959,222.626,124.949z"/>
	<g>
		<path d="M81.668,96.497h16.437l-21.726,59.626H56.643L35.584,96.497h18.249l13.466,43.191h0.166L81.668,96.497z"/>
		<path d="M134.191,115.242c-0.413-5.372-4.45-8.426-11.229-8.426c-9.499,0-11.232,11.154-11.232,20.069
			c0,8.672,1.899,18.915,11.232,18.915c6.938,0,10.9-3.061,11.229-8.752h17.348c0.24,15.027-14.118,20.312-28.576,20.312
			c-18.58,0-28.575-11.15-28.575-31.131c0-19.987,9.995-30.813,28.575-30.976c14.458,0,28.816,4.958,28.576,19.99H134.191z"/>
		<path d="M213.063,96.497v37.741c-0.158,16.6-13.458,23.122-28.492,23.122c-15.023,0-28.319-6.521-28.488-23.122V96.497h16.521
			v36.911c0.244,7.599,4.214,12.393,11.968,12.393c7.768,0,11.73-4.794,11.972-12.393V96.497H213.063z"/>
	</g>
	<path d="M248.12,125.02c0,67.991-55.114,123.112-123.111,123.112c-67.993,0-123.116-55.121-123.116-123.112
		c0-67.994,55.123-123.115,123.116-123.115C193.006,1.905,248.12,57.026,248.12,125.02z"/>
	<path fill="#F8B800" d="M222.626,124.949c0,53.986-43.77,97.753-97.749,97.753c-53.993,0-97.758-43.767-97.758-97.753
		c0-53.99,43.765-97.748,97.758-97.748C178.856,27.202,222.626,70.959,222.626,124.949z"/>
	<g>
		<path d="M81.668,96.497h16.437l-21.726,59.626H56.643L35.584,96.497h18.249l13.466,43.191h0.166L81.668,96.497z"/>
		<path d="M134.191,115.242c-0.413-5.372-4.45-8.426-11.229-8.426c-9.499,0-11.232,11.154-11.232,20.069
			c0,8.672,1.899,18.915,11.232,18.915c6.938,0,10.9-3.061,11.229-8.752h17.348c0.24,15.027-14.118,20.312-28.576,20.312
			c-18.58,0-28.575-11.15-28.575-31.131c0-19.987,9.995-30.813,28.575-30.976c14.458,0,28.816,4.958,28.576,19.99H134.191z"/>
		<path d="M213.063,96.497v37.741c-0.158,16.6-13.458,23.122-28.492,23.122c-15.023,0-28.319-6.521-28.488-23.122V96.497h16.521
			v36.911c0.244,7.599,4.214,12.393,11.968,12.393c7.768,0,11.73-4.794,11.972-12.393V96.497H213.063z"/>
	</g>
	<g>
		<g>
			<path fill="#FFFFFF" d="M14.527,163.057l-1.253-3.335l13.768-0.117l1.501,4.006l-10.518,8.815l-1.388-3.71l7.759-6.016
				l-0.013-0.037L14.527,163.057z"/>
			<path fill="#FFFFFF" d="M23.086,144.991l-8.855,1.57l-0.594-3.351l8.854-1.574L23.086,144.991z M12.719,146.85l-2.368,0.421
				l-0.598-3.389l2.362-0.42L12.719,146.85z"/>
			<path fill="#FFFFFF" d="M13.893,126.532v-0.037c-1.493-0.372-2.017-1.469-2.007-2.974l2.888-0.051
				c-0.014,0.248-0.009,0.483-0.007,0.711c0.046,1.778,1.119,2.368,2.837,2.285l3.601-0.061l0.058,3.405l-6.683,0.115
				c-0.803,0.01-1.345,0.038-2.311,0.143l-0.057-3.459L13.893,126.532z"/>
			<path fill="#FFFFFF" d="M18.235,105.39c1.102,0.186,2.423,0.719,2.193,2.1c-0.241,1.377-1.672,1.44-2.766,1.257
				c-1.095-0.192-2.418-0.727-2.182-2.106C15.715,105.271,17.142,105.205,18.235,105.39z M14.663,101.326l-0.562,3.266l1.278,0.309
				l-0.012,0.036c-1.126,0.338-1.8,1.201-2.016,2.437c-0.436,2.559,1.152,4.377,3.726,4.815c2.369,0.41,4.647-0.586,5.078-3.13
				c0.196-1.128-0.029-2.406-0.918-3.119l0.005-0.037l1.008,0.172c1.306,0.225,2.215,0.656,1.964,2.136
				c-0.064,0.348-0.195,0.691-0.398,0.933c-0.226,0.215-0.492,0.349-0.94,0.293l-0.535,3.126c2.563,0.436,3.48-2.079,3.817-4.045
				c0.188-1.105,0.132-3.007-0.583-4.058c-0.808-1.209-1.769-1.52-3.281-1.831L14.663,101.326z"/>
			<path fill="#FFFFFF" d="M26.754,91.738l-8.467-3.046l1.159-3.204l8.462,3.039L26.754,91.738z M16.833,88.192l-2.256-0.814
				l1.162-3.245l2.258,0.816L16.833,88.192z"/>
			<path fill="#FFFFFF" d="M27.373,70.729c-0.396-1.112-0.261-2.067,0.314-3.057c0.955-1.687,2.753-2.307,4.479-1.317l5.23,2.991
				L35.7,72.301l-4.584-2.625c-0.779-0.408-1.713-0.694-2.237,0.227c-0.842,1.46,0.871,2.19,0.964,2.247l4.477,2.563l-1.689,2.952
				l-5.804-3.32c-0.696-0.399-1.173-0.651-2.054-1.06l1.716-2.997L27.373,70.729z"/>
			<path fill="#FFFFFF" d="M44.357,59.795l-6.911-5.751l2.177-2.62l6.909,5.759L44.357,59.795z M36.25,53.071l-1.849-1.538
				l2.205-2.642l1.849,1.533L36.25,53.071z"/>
			<path fill="#FFFFFF" d="M54.89,44.664c-0.402-0.477-0.314-0.976-0.091-1.494c0.206-0.479,0.747-0.889,1.291-1.356
				c0.775,0.916,1.576,2.049,0.457,3.001C56.058,45.233,55.312,45.156,54.89,44.664z M61.443,42.884
				c-0.789-0.739-1.098-0.986-1.345-1.277l-2.992-3.525c-1.289-1.563-3.464-0.724-4.854,0.461c-0.768,0.642-1.583,1.484-2.018,2.417
				c-0.43,0.902-0.46,1.891,0.38,2.854l2.447-2.082c-0.365-0.393-0.688-1.184-0.075-1.745c0.999-0.924,1.604,0.065,2.116,0.663
				l-0.82,0.703c-2.233,1.9-3.186,3.883-1.8,5.569c1.167,1.433,2.759,1.584,4.382,0.208c1.284-1.096,1.328-2.238,1.223-2.993
				l0.028-0.023c0.415,0.492,0.601,0.713,0.845,0.883L61.443,42.884z"/>
			<path fill="#FFFFFF" d="M89.964,17.989c-0.467-1.07-1.513-1.406-2.903-0.927c-1.948,0.676-1.504,3.085-0.867,4.916
				c0.614,1.781,1.734,3.744,3.645,3.074c1.426-0.495,2.019-1.399,1.676-2.592l3.56-1.241c1.119,3.067-1.447,5.176-4.406,6.206
				c-3.813,1.322-6.656-0.252-8.079-4.347c-1.426-4.097-0.146-7.024,3.651-8.384c2.966-1.03,6.255-1.037,7.279,2.06L89.964,17.989z"
				/>
			<path fill="#FFFFFF" d="M109.763,17.957c-0.153-1.263-0.031-2.813,1.392-2.982c1.423-0.177,1.907,1.295,2.062,2.562
				c0.148,1.262,0.035,2.813-1.391,2.985C110.401,20.689,109.916,19.214,109.763,17.957z M110.915,13.015
				c-2.794,0.337-5.016,2.076-4.615,5.366c0.4,3.285,2.973,4.435,5.769,4.094c2.788-0.342,5.011-2.07,4.613-5.357
				C116.281,13.823,113.704,12.677,110.915,13.015z"/>
			<path fill="#FFFFFF" d="M132.305,14.072l0.041,0.001c0.752-1.166,1.985-1.5,3.319-1.353c1.081,0.111,2.25,0.819,2.5,1.943
				c0.722-1.007,2.026-1.479,3.36-1.37c1.932,0.208,3.219,1.605,3.002,3.585l-0.646,5.985l-3.382-0.366l0.56-5.256
				c0.07-0.874-0.048-1.84-1.094-1.955c-1.67-0.178-1.656,1.681-1.67,1.786l-0.553,5.129l-3.377-0.359l0.558-5.256
				c0.056-0.879-0.058-1.845-1.106-1.958c-1.684-0.181-1.667,1.673-1.684,1.786l-0.532,5.129l-3.394-0.365l0.714-6.645
				c0.088-0.799,0.13-1.338,0.14-2.307l3.356,0.356L132.305,14.072z"/>
			<path fill="#FFFFFF" d="M160.461,19.648l0.038,0.016c1.026-0.931,2.3-0.946,3.558-0.462c1.02,0.395,1.968,1.372,1.934,2.524
				c0.948-0.782,2.32-0.907,3.598-0.459c1.805,0.69,2.689,2.37,1.982,4.231l-2.166,5.626l-3.174-1.223l1.895-4.937
				c0.268-0.83,0.426-1.792-0.566-2.172c-1.574-0.608-2.046,1.193-2.084,1.291l-1.836,4.824l-3.184-1.221l1.894-4.936
				c0.288-0.831,0.424-1.795-0.556-2.175c-1.582-0.603-2.036,1.198-2.08,1.299l-1.842,4.821l-3.192-1.224l2.402-6.243
				c0.292-0.749,0.458-1.26,0.735-2.194l3.141,1.205L160.461,19.648z"/>
			<path fill="#FFFFFF" d="M184.341,34.673c0.71-1.054,1.822-2.141,3.001-1.342c1.188,0.805,0.586,2.235-0.129,3.29
				c-0.715,1.055-1.816,2.141-3.002,1.343C183.013,37.156,183.625,35.728,184.341,34.673z M188.452,31.7
				c-2.323-1.575-5.146-1.732-7.012,1.008c-1.853,2.75-0.668,5.308,1.66,6.88c2.33,1.579,5.146,1.74,7.016-1.011
				C191.969,35.833,190.772,33.279,188.452,31.7z"/>
			<path fill="#FFFFFF" d="M204.218,46.336c1.169-0.073,2.063,0.316,2.87,1.138c1.341,1.385,1.456,3.284,0.026,4.675l-4.306,4.205
				l-2.381-2.437l3.783-3.687c0.604-0.64,1.132-1.459,0.407-2.22c-1.199-1.197-2.368,0.244-2.442,0.315l-3.689,3.606l-2.374-2.44
				l4.782-4.662c0.569-0.56,0.956-0.954,1.568-1.692l2.426,2.473L204.218,46.336z"/>
			<path fill="#FFFFFF" d="M211.017,66.803l6.264-7.018l1.774,2.94l-4.685,4.553l0.026,0.035l6.264-1.968l1.948,3.211l-4.603,4.633
				l0.022,0.028l6.237-1.952l1.559,2.577l-9.16,2.256l-1.945-3.22l4.512-4.649l-0.036-0.028l-6.25,1.753L211.017,66.803z"/>
			<path fill="#FFFFFF" d="M228.368,88.998c0.998-0.236,1.886-0.23,2.31,0.873c0.196,0.481,0.095,0.931-0.162,1.302
				c-0.279,0.377-0.699,0.665-1.149,0.817L228.368,88.998z M228.652,95.626c3.166-1.053,4.8-2.826,3.645-6.294
				c-0.86-2.565-3.059-4.073-5.763-3.177c-3.35,1.115-4.358,2.961-3.218,6.379c0.336,1.006,0.844,1.892,1.556,2.486
				c0.748,0.65,1.788,1.085,2.912,0.816l-0.985-2.993c-0.847,0.151-1.449-0.271-1.761-1.172c-0.397-1.206,0.456-1.814,1.571-2.167
				L228.652,95.626z"/>
			<path fill="#FFFFFF" d="M230.641,109.983c0.627-0.074,0.989,0.28,1.308,0.745c0.294,0.436,0.336,1.113,0.427,1.827
				c-1.186,0.146-2.578,0.2-2.755-1.259C229.532,110.655,230.008,110.071,230.641,109.983z M228.554,116.446
				c1.054-0.252,1.433-0.375,1.813-0.423l4.586-0.583c2.013-0.216,2.494-2.503,2.26-4.312c-0.118-0.997-0.365-2.137-0.918-3.011
				c-0.528-0.852-1.328-1.421-2.598-1.239l0.413,3.178c0.521-0.083,1.361,0.085,1.494,0.894c0.223,1.344-0.939,1.312-1.715,1.412
				l-0.135-1.066c-0.37-2.918-1.504-4.794-3.676-4.555c-1.84,0.196-2.838,1.442-2.57,3.555c0.209,1.67,1.145,2.333,1.828,2.656
				l0.011,0.034c-0.646,0.084-0.925,0.126-1.2,0.228L228.554,116.446z"/>
			<path fill="#FFFFFF" d="M228.78,128.217l12.931,0.565l-0.152,3.4l-12.917-0.564L228.78,128.217z"/>
			<path fill="#FFFFFF" d="M235.928,146.039l1.328,0.279l0.594,3.584l-2.605-0.526l-0.393,1.934l-2.117-0.431l0.406-1.932
				l-3.49-0.712c-0.232-0.048-1.348-0.42-1.496,0.349c-0.099,0.444-0.2,0.899-0.227,1.297l-1.982-0.407
				c0.023-0.782,0.089-1.337,0.203-1.828c0.454-2.265,1.047-3.569,3.713-2.838l3.953,0.803l0.363-1.718l2.097,0.429L235.928,146.039
				z"/>
			<path fill="#FFFFFF" d="M222.928,160.178l11.975,4.911l-1.291,3.151l-4.56-1.874c0.538,1.055,0.519,2.02,0.088,3.079
				c-0.731,1.791-2.441,2.643-4.285,1.887l-5.563-2.289l1.288-3.147l4.898,2.004c0.822,0.304,1.785,0.463,2.178-0.514
				c0.646-1.555-1.148-2.057-1.24-2.102l-4.779-1.96L222.928,160.178z"/>
		</g>
		<g>
			<path fill="#FFFFFF" d="M56.337,203.598l-5.738,5.843c-2.555,2.54-5.604,1.526-7.93-0.764c-2.317-2.286-3.391-5.317-0.884-7.912
				l5.737-5.836l2.559,2.515l-5.617,5.708c-1.114,1.217-1.232,2.555-0.033,3.739c1.2,1.18,2.54,1.042,3.738-0.091l5.614-5.712
				L56.337,203.598z"/>
			<path fill="#FFFFFF" d="M65.549,216.531c1.133-0.346,2.078-0.168,3.049,0.442c1.634,1.04,2.172,2.867,1.107,4.552l-3.227,5.077
				l-2.877-1.823l2.834-4.461c0.441-0.758,0.769-1.677-0.125-2.243c-1.42-0.904-2.227,0.768-2.287,0.86l-2.768,4.355l-2.871-1.817
				l3.583-5.647c0.429-0.677,0.7-1.139,1.145-2.006l2.92,1.851L65.549,216.531z"/>
			<path fill="#FFFFFF" d="M78.888,232.74l3.429-8.316l3.147,1.296l-3.433,8.313L78.888,232.74z M82.891,222.995l0.913-2.224
				l3.182,1.311l-0.918,2.22L82.891,222.995z"/>
			<path fill="#FFFFFF" d="M97.568,238.951l-1.375-9.526l3.532,0.788l0.353,6.548l0.036,0.009l3.233-5.744l3.096,0.697l-5.289,8.031
				L97.568,238.951z"/>
			<path fill="#FFFFFF" d="M120.178,236.433c0.119-1.016,0.43-1.851,1.613-1.875c0.518-0.021,0.918,0.229,1.164,0.611
				c0.258,0.383,0.387,0.868,0.373,1.353L120.178,236.433z M126.509,238.435c0.095-3.344-1.012-5.473-4.668-5.575
				c-2.71-0.074-4.882,1.48-4.966,4.325c-0.092,3.529,1.298,5.105,4.892,5.214c1.064,0.022,2.073-0.146,2.876-0.625
				c0.874-0.479,1.619-1.297,1.762-2.461l-3.151-0.09c-0.146,0.845-0.752,1.276-1.7,1.243c-1.27-0.03-1.548-1.047-1.486-2.207
				L126.509,238.435z"/>
			<path fill="#FFFFFF" d="M141.889,233.576l0.03-0.004c0.186-1.528,1.216-2.183,2.706-2.366l0.428,2.852
				c-0.266,0.016-0.488,0.054-0.719,0.086c-1.755,0.277-2.199,1.413-1.9,3.107l0.521,3.561l-3.366,0.493l-0.974-6.606
				c-0.11-0.801-0.202-1.335-0.45-2.274l3.432-0.504L141.889,233.576z"/>
			<path fill="#FFFFFF" d="M161.047,230.017c-0.09-0.289-0.219-0.525-0.439-0.64c-0.23-0.138-0.535-0.16-0.992-0.014
				c-0.479,0.151-0.668,0.522-0.505,1.016c0.217,0.625,1.511,0.16,3.746,0.116c1.122-0.017,2.026,0.384,2.483,1.779
				c0.759,2.259-1.175,3.546-3.137,4.193c-2.094,0.695-4.269,0.946-5.115-1.662l3.063-1.014c0.034,0.27,0.213,0.532,0.471,0.691
				c0.268,0.158,0.592,0.241,0.897,0.14c0.63-0.212,1.006-0.603,0.824-1.147c-0.492-1.511-5.248,1.062-6.274-2.033
				c-0.701-2.105,1.349-3.431,3.052-3.991c2.019-0.676,4.065-0.773,4.99,1.552L161.047,230.017z"/>
			<path fill="#FFFFFF" d="M178.311,229.451l-4.218-7.944l3.006-1.6l4.228,7.955L178.311,229.451z M173.364,220.151l-1.13-2.124
				l3.034-1.612l1.132,2.125L173.364,220.151z"/>
			<path fill="#FFFFFF" d="M188.179,212.908l-0.826-1.091l1.95-3.074l1.582,2.12l1.582-1.18l1.291,1.717l-1.571,1.18l2.144,2.853
				c0.135,0.188,0.732,1.207,1.345,0.733c0.369-0.271,0.735-0.549,1.014-0.834l1.229,1.62c-0.533,0.581-0.956,0.941-1.363,1.243
				c-1.855,1.391-3.156,1.97-4.678-0.342l-2.412-3.224l-1.402,1.053l-1.3-1.718L188.179,212.908z"/>
			<path fill="#FFFFFF" d="M207.586,195.038l5.774,12.054l-2.138,2.295l-1.452-3.093l-9.343-3.551l2.473-2.664l5.792,2.959
				l0.024-0.024l-3.269-5.677L207.586,195.038z"/>
		</g>
	</g>
	<path fill="#FFFFFF" d="M0,124.998c0,68.925,56.075,124.998,125.001,124.998c68.926,0,124.999-56.073,124.999-124.998
		C250,56.074,193.927,0,125.001,0C56.075,0,0,56.074,0,124.998z M1.954,124.998c0-67.847,55.198-123.043,123.047-123.043
		c67.839,0,123.045,55.197,123.045,123.043c0,67.846-55.206,123.044-123.045,123.044C57.152,248.042,1.954,192.844,1.954,124.998z"
		/>
</g>
</svg>
